<svg height="24" viewBox="0 0 24 24" width="24" xmlns="http://www.w3.org/2000/svg"><g fill="none" fill-rule="evenodd"><path d="m0 0h24v24h-24z" fill-rule="nonzero"/><path d="m8.06925 5.00237c-1.59464-.11054-2.86453.81579-3.7521 1.97853-.89277 1.16956-1.52228 2.7206-1.86932 4.268-.34694 1.547-.43364 3.189-.15442 4.5641.27136 1.3363.96385 2.7097 2.42027 3.1451 1.38824.415 2.6348-.1751 3.58654-.9757.95384-.8024 1.78038-1.946 2.44568-3.0515.5219-.8672.968-1.7506 1.3177-2.5044.3498.7538.7959 1.6372 1.3178 2.5044.6653 1.1055 1.4918 2.2491 2.4457 3.0515.9517.8006 2.1983 1.3907 3.5865.9757 1.4564-.4354 2.1489-1.8088 2.4203-3.1451.2792-1.3751.1925-3.0171-.1544-4.5641-.3471-1.5474-.9766-3.09844-1.8694-4.268-.8875-1.16274-2.1574-2.08907-3.7521-1.97853-1.7337.12018-2.9701 1.46822-3.6865 2.48763-.1102.15685-.2129.31273-.3079.46456-.0949-.15183-.1976-.30771-.3078-.46456-.7164-1.01941-1.9528-2.36745-3.68655-2.48763zm2.85005 5.02413c-.2822.7152-.96926 2.3482-1.88698 3.8731-.62166 1.0329-1.31366 1.9585-2.01957 2.5523-.708.5955-1.26245.7286-1.72623.59-.39558-.1183-.81659-.5607-1.03311-1.6269-.20865-1.0275-.15761-2.3748.14595-3.7284.30346-1.3531.8372-2.61398 1.50756-3.49217.67555-.88499 1.36867-1.24227 2.02403-1.19685.76623.05312 1.52982.70508 2.18845 1.64234.3676.52303.6422 1.05168.7999 1.38658zm2.2887 0c.2822.7152.9693 2.3482 1.887 3.8731.6216 1.0329 1.3136 1.9585 2.0195 2.5523.7081.5955 1.2625.7286 1.7263.59.3956-.1183.8166-.5607 1.0331-1.6269.2086-1.0275.1576-2.3748-.146-3.7284-.3034-1.3531-.8372-2.61398-1.5075-3.49217-.6756-.88499-1.3687-1.24227-2.0241-1.19685-.7662.05312-1.5298.70508-2.1884 1.64234-.3676.52303-.6422 1.05168-.7999 1.38658z" fill="#09244b"/></g></svg>